<?xml version="1.0" encoding="utf-8"?>
<!-- Generator: Adobe Illustrator 23.1.0, SVG Export Plug-In . SVG Version: 6.00 Build 0)  -->
<svg version="1.1" id="Capa_1" xmlns="http://www.w3.org/2000/svg" xmlns:xlink="http://www.w3.org/1999/xlink" x="0px" y="0px"
	 viewBox="0 0 500 453.4" style="enable-background:new 0 0 500 453.4;" xml:space="preserve">
<style type="text/css">
	.st0{fill:none;stroke:#000000;stroke-miterlimit:10;}
	.st1{fill:#999999;stroke:#000000;stroke-width:4;stroke-miterlimit:10;}
	.st2{fill:#FFFFFF;}
	.st3{fill:#FFA64D;}
	.st4{fill:#FFC2DC;}
	.st5{fill:#B47F00;stroke:#000000;stroke-width:2;stroke-miterlimit:10;}
	.st6{fill:none;stroke:#000000;stroke-width:2;stroke-miterlimit:10;}
	.st7{fill:#FFFFFF;stroke:#000000;stroke-miterlimit:10;}
	.st8{stroke:#000000;stroke-width:1;stroke-miterlimit:10.0004;}
	.st9{stroke:#000000;stroke-width:1;stroke-miterlimit:9.9999;}
	.st10{stroke:#000000;stroke-miterlimit:10;}
</style>
<path class="st0" d="M508.1,253.6"/>
<g id="Capa_4">
	<g>
		<ellipse class="st1" cx="250.4" cy="226.5" rx="247" ry="220.3"/>
		<g>
			<path class="st2" d="M181.4,205.4c15.6-5.1,36-10.2,60.2-12.4c22.2-1.9,41.6-0.9,56.9,1.1c15.3,34.5,30.6,68.9,46,103.4
				c1.9,5.8,11.3,36.3-5.2,64.3c-17.6,30-57.8,44.8-97.8,33.6c-14.9,12.9-29.1,17.5-37,19.4c-10.9,2.6-24.1,5.7-34.3-1.9
				c-6.2-4.7-8.8-11.5-9.8-15.5c-6.7-1.8-15.9-5-26-10.5c-3.3-1.8-15-8.4-22.8-16.2c-17-16.9-25.5-49.5-14.3-78.4
				c11.5-29.4,38.2-41,43.5-43.1C154.3,234.6,167.9,220,181.4,205.4z"/>
			<g>
				<path class="st3" d="M180.6,240.1c-2.8,5.7-6.3,12.9-11.9,17.9c-8.7,7.8-15,3.8-38.1,10.5c-15.2,4.4-22,8.8-23.3,7
					c-1.1-1.6,2.4-7.4,22-25.2c-16.2-4-28.9-14.7-32.2-28.4c-0.5-2.2-2.5-10.7,1.5-20c5.2-12.2,16.8-16.6,20-17.9
					c13.8-5.4,26.8-0.9,30.4,0.4c6.1,2.1,10.1,4.3,10.1,4.3c6.6,3.6,7.8,6.1,10.8,6c4.7-0.2,6.9-6.8,10.8-11.9
					c6.6-8.6,17-9.8,28.9-13.3c24.5-7.3,178.8-24.6,194.6,25.7c3.1,10,4.3,33.7-46.9,79.3c6.3,11,16.5,32.8,13.1,58.8
					c-0.6,4.5-1.6,12-5.8,20.8c-8.8,18.5-24.8,27.1-37,33.6c-20.8,11.2-40.9,14.4-54.9,15.2c-21.5,3.8-43,7.5-64.5,11.3
					c-4.6,0.5-9.3,1.1-13.9,1.6c1.7-4.6,4.5-10.3,9.3-15.9c7.4-8.6,16.3-12.9,21.1-14.4c1.9-0.6,4.3-1.2,14.9-2.1
					c9.9-0.8,14.8-1.2,25.1-1.3c13.3-0.1,36.4-0.3,53.3-11.5c15.8-10.5,29.8-33.2,24.7-53.1c-5-19.5-27.1-30.6-35.7-34.9
					c-15.2-7.6-21.8-5.2-31.8-14.6c-12-11.2-14.6-25.9-15.1-29.3c0,0-0.5-3.1-0.3-8.3c0.3-7.9,2-10.7,3.7-20.4
					c0.1-0.7,0.4-2.4,1.3-4.4c0.7-1.8,1.6-3.1,2.3-4c-1,1-2.4,2.3-4.3,3.4c-1.5,0.9-2.8,1.4-4,1.8c0.7-0.6,2.4-2.4,2.6-4.9
					c0.1-1.4-0.2-3.3-0.9-3.4c-0.7-0.1-1.3,1.8-3.1,3.8c-1.5,1.6-3.1,2.6-4.3,3.3c1.1-5.8,1-7.2,0.6-7.3c-0.6-0.2-1.5,3.3-4.8,6.4
					c-1.3,1.2-2.6,2-3.4,2.5c1.3-2.7,1-5.1-0.2-5.8c-0.7-0.4-1.6-0.3-2.3,0.1c-1.3,0.6-1.3,1.9-2.3,3.3c-0.6,0.8-1.7,1.8-3.7,2.4
					c0.3-0.6,1.1-2.1,0.8-4.2c-0.2-1.6-0.9-2.7-1.3-3.2c-0.9,1.4-2.2,3.1-3.9,4.8c-2.1,2.1-4.2,3.4-5.8,4.3c0.3-0.3,1.6-1.6,1.6-3.5
					c0-1.1-0.3-1.9-0.6-2.4c-0.5,0.8-1.6,2.3-3.6,3.4c-1,0.5-1.9,0.8-2.6,0.9c0.4-0.6,0.8-1.4,1.1-2.4c0.3-1.1,0.4-2,0.4-2.7
					c-0.7,0.8-1.5,1.6-2.5,2.4c-1.5,1.2-2.9,2.1-4.1,2.7c0.2-1,0.3-2,0.4-3.1c0.1-1.5,0.2-2.8,0.2-4.1c0,0-3,2.7-3.1,2.8
					c0,0-4.2,3.8-4.3,3.8c0.2-0.9,0.3-2.3,0.1-3.9c-0.2-1.3-0.5-2.4-0.9-3.2c-1.3,2.7-2.6,5.4-4,8.1c-1,2.1-2.1,4.1-3.1,6.1
					c-1.3-2-2.5-4.1-3.8-6.1c0.1,1.8,0.1,4.3-0.6,7.1c-0.6,2.3-1.4,4.1-2.2,5.5c0.8-1.4,0.6-3-0.3-3.6c-0.6-0.4-1.4-0.4-1.7-0.3
					c-0.4,1.4-0.9,2.9-1.2,4.6c-0.3,1.6-0.5,3.2-0.6,4.5c0-0.6-0.2-1.5-0.8-2.5c-0.4-0.6-0.8-1.1-1.1-1.4c-0.4,2.2-0.8,4.4-1.2,6.6
					c0.1-0.2,0.4-1.7-0.4-2.9c-0.4-0.6-0.9-0.9-1.2-1c-0.1,2.6-0.1,5.2-0.2,7.8c-0.4-1.7-0.7-3.4-1.1-5.1
					C184.7,230.2,183.1,234.9,180.6,240.1z"/>
				<path class="st4" d="M225.3,333c4,4.7-5.5,23.1-18.1,27.4c-2.9,1-7,2.4-11.7,1.2c-3.6-0.9-4.6-2.6-8.1-2.6
					c-3.4,0-4.3,1.4-8.6,2.1c-3.6,0.6-6.4,0.1-8.3-0.2c-7.6-1.3-16.3-6.9-20.5-15.9c-2.1-4.4-5-13.9-1.4-16.7
					c5.4-4.1,19.8,11.4,26.2,6.9c1.9-1.4,2.1-6.2,2.4-15.9c0.4-14.1-1.6-16.4-2.9-17.3c-2.4-1.7-4,0-8-1.8c-0.8-0.4-7-3.3-7.7-8.9
					c-0.6-5.4,4.4-10,8.3-11.8c1.2-0.5,4.2-2,7.8-1.3c4.4,0.9,5.4,4.1,12.5,7.1c1.8,0.8,2.6,1.1,3.7,1.3c5.1,0.7,7.5-3,12.6-4.4
					c4.6-1.3,11.4-0.8,13.9,2.8c3.6,5.2-1.8,16.7-8.5,18.3c-5.1,1.2-8.8-3.8-11.5-2c-2.4,1.6-0.7,6.1-0.5,15.1
					c0.4,12.9-2.7,16.1-0.2,18.8C202.4,341.4,220.9,327.9,225.3,333z"/>
				<path class="st5" d="M127.8,250.3c-0.2,0.4-5.7-1.9-14-7.4c-10.2-6.7-70.9-46.5-67.3-101.2c0.4-6.7,1.5-33,18.9-41.3
					c20.8-9.9,53.6,17.7,76.2,33.4c0,0,56.5-115.8,91.7-80.3c0,0,4.8,1,14-6.8c9.2-7.8,41.9-28.1,69.2,16.9
					c27.3,45,25.1,60.9,25.1,60.9c10.7-2.6,26.8-5.1,45.8-2.6c14.2,1.9,52.7,7,64,31.4c16.7,36.3-39.3,87.9-42.5,90.7
					c-19.1,17.2-39,25.8-51.5,30.1c-0.9-1.7-1.9-3.4-2.8-5c5.2-3.9,12.2-10,18.7-18.9c2.9-4,26.4-36.5,14.1-55.6
					c-9-14.1-32.6-13.6-46.2-13.3c-15.6,0.3-28,4.4-35.7,7.6c-16.2-8.1-29.8-10.7-38.9-11.7c-13.4-1.4-12.5,1.2-40.7,1.2
					c-18.3,0-24.4-1.1-34,2.4c-10,3.7-16.9,10-21.1,14.4c-3.8-3.6-10.9-9.4-21.4-12.7c-5.1-1.6-15.7-5-27-1.4
					c-16,5.1-29.2,22.7-27,37.2C98.2,237.9,128.4,249.4,127.8,250.3z"/>
				<path class="st6" d="M354.1,269.6c5.3,7.1,16.5,24.4,17.3,48.4c0.1,2.3,0.5,20.7-7.8,38.2c-21,43.9-83.3,43.6-157,58.1
					c-48.6,9.5-46.7-17.1-46.7-17.1c-36.2-11.4-99-52.4-61.8-110.8c10.3-16.3,20.3-27.9,29.4-36.4c-13.1-5.4-45.5-22.3-26.5-52
					c23.5-36.8,69.8-2.5,69.8-2.5c14.3-13.4,26.7-17.4,35.5-18.6c11.8-1.6,14.9,2.1,38.4,0.9c9.3-0.5,13.4-1.3,21.9-0.5
					c3.3,0.3,14.1,1.4,23.1,5c1,0.4,6.6,2.8,15.4,6.5c0.3,0.1,0.5,0.2,0.5,0.2c0,0,15.8-7.6,32.1-8.9c17.1-1.4,44.8,2,51.9,18.5
					c3.2,7.4,1.1,14.6-1.6,23.5C381,244.6,365.9,260.1,354.1,269.6z"/>
				<g>
					<path d="M125.9,189.9c8.4-0.1,16.8,1.2,24.7,4.2c3.9,1.5,7.7,3.5,11.3,5.7c1.8,1.1,3.6,2.3,5.1,3.8c1.6,1.4,2.9,3.3,3.3,5.5
						c0.5,2.2-0.3,4.6-1.5,6.3c-1.2,1.8-2.6,3.4-4.1,4.9c-3,2.9-6.3,5.6-9.5,8.3l-19.3,16.1l-4.8,4c-1.6,1.4-3.2,2.7-4.8,4.1
						c-1.5,1.4-3,2.8-4.4,4.4c-1.4,1.5-2.7,3.1-4,4.8c-2.6,3.3-5.1,6.6-7.7,9.9c-2.6,3.3-5.1,6.6-7.4,10.1c-2.3,3.4-4.5,7-6.4,10.7
						c-1.9,3.7-3.5,7.5-4.8,11.5c-1.3,3.9-2.2,8-2.8,12.1c-0.6,4.1-0.7,8.3-0.6,12.5l-0.2,0c-0.4-4.2-0.4-8.4-0.1-12.6
						c0.4-4.2,1.2-8.4,2.3-12.4c2.3-8.1,6.2-15.8,10.9-22.8c2.4-3.5,4.8-6.9,7.4-10.2s5.1-6.6,7.8-9.9c1.3-1.6,2.7-3.3,4.2-4.8
						c1.5-1.5,3-3,4.6-4.4c1.6-1.4,3.3-2.7,4.9-4l4.9-3.9l19.5-15.8c3.2-2.7,6.5-5.3,9.5-8.2c1.5-1.4,2.9-2.9,4-4.6
						c1.1-1.7,1.8-3.6,1.4-5.6c-0.3-1.9-1.5-3.7-3-5.1c-1.5-1.4-3.2-2.6-4.9-3.7c-3.5-2.3-7.1-4.3-11-5.8
						c-7.8-3.1-16.1-4.5-24.5-4.6L125.9,189.9z"/>
				</g>
				<g>
					<path d="M227.6,192.5c4-2.6,8.4-4.9,12.8-6.8c4.4-1.9,9-3.5,13.7-4.8c4.7-1.2,9.5-2,14.3-2.3c4.9-0.3,9.7,0.2,14.4,1.2
						c-2.4-0.2-4.8-0.7-7.2-0.6l-1.8-0.1l-0.9,0l-0.9,0l-3.6,0.2c-4.8,0.5-9.5,1.2-14.1,2.5c-4.6,1.2-9.2,2.8-13.6,4.6
						c-2.2,0.9-4.4,1.8-6.6,2.9C231.8,190.2,229.7,191.3,227.6,192.5z"/>
				</g>
				<g>
					<path d="M199.5,192c1.9-1.4,4-2.8,6.1-4.1c2.1-1.3,4.2-2.4,6.4-3.5c4.4-2.1,9-3.9,13.6-5.3c4.7-1.3,9.5-2.3,14.3-2.8
						c2.4-0.3,4.9-0.4,7.3-0.5c2.4,0,4.9,0,7.3,0.2c-4.9,0-9.7,0.3-14.5,1c-4.8,0.7-9.5,1.6-14.2,3c-4.6,1.3-9.2,3-13.6,5
						C207.9,187.1,203.6,189.4,199.5,192z"/>
				</g>
				<g>
					<path d="M311.8,198.9c5.3-2.6,11-4.3,16.8-5.1c2.9-0.4,5.9-0.6,8.8-0.6c3,0.1,5.9,0.3,8.8,0.8c5.9,0.9,11.5,2.8,16.8,5.5
						c2.6,1.3,5.2,2.9,7.5,4.6c2.4,1.8,4.6,3.6,6.7,5.7c-4.6-3.5-9.6-6.5-14.9-8.9c-5.3-2.3-10.8-4-16.5-4.9
						c-2.8-0.5-5.7-0.7-8.6-0.9c-2.9-0.1-5.7,0-8.6,0.3C323,195.9,317.3,197.1,311.8,198.9z"/>
				</g>
				<g>
					<path d="M177.4,219c2.8,4.4,4.3,9.6,4.3,14.8c-0.1,5.2-1.5,10.5-4.4,15c-2.9,4.4-6.9,8-11.3,10.9c-2.2,1.4-4.5,2.8-6.9,3.8
						c-2.4,1-5,1.7-7.6,2.2c-5.1,1-10.1,2.1-15.1,3.4c-5,1.4-10,2.7-14.9,4.3c-4.9,1.6-9.6,3.6-13.3,7c-3.7,3.4-6.6,7.7-8.9,12.2
						c-2.3,4.6-4.1,9.4-5.9,14.3c-0.9,2.4-1.8,4.8-2.4,7.3c-0.6,2.5-0.9,5-1,7.5c-0.1,5.1,0.8,10.1,2.5,15c0.8,2.4,1.9,4.8,3,7.1
						c1.1,2.3,2.3,4.6,3.6,6.8c2.7,4.4,5.9,8.4,9.4,12.2c3.6,3.7,7.2,7.4,11.1,10.8c7.7,6.9,16.3,12.7,25.4,17.8
						c-9.3-4.6-18-10.4-26.1-17c-4-3.4-7.7-7-11.4-10.7c-3.6-3.7-7-7.8-9.8-12.2c-1.4-2.2-2.7-4.5-3.8-6.9c-1.1-2.3-2.2-4.8-3.1-7.2
						c-1.8-5-2.8-10.3-2.7-15.6c0.1-2.6,0.3-5.3,1-7.9c0.6-2.6,1.5-5.1,2.4-7.5c1.8-4.9,3.6-9.8,5.9-14.5c2.4-4.7,5.4-9.2,9.4-12.8
						c2-1.8,4.3-3.3,6.7-4.5c2.4-1.2,4.9-2.1,7.4-2.9c5-1.6,10-2.9,15-4.2c5-1.4,10.2-2.3,15.3-3.2c2.5-0.5,5-1.1,7.4-2
						c2.4-0.9,4.6-2.2,6.8-3.5c4.3-2.7,8.3-6.2,11.2-10.4c2.9-4.2,4.4-9.3,4.7-14.4C181.4,228.7,180,223.5,177.4,219z"/>
				</g>
				<ellipse cx="175.3" cy="232.9" rx="6.9" ry="14.6"/>
				<ellipse class="st7" cx="173.9" cy="230.6" rx="3.3" ry="4.8"/>
				<g>
					<path d="M264.8,205.4c-0.9,3-1.6,6-2.2,9.1c-0.6,3-1.1,6.1-1.4,9.2c-0.3,3.1-0.5,6.2-0.6,9.3c0,3.1,0.1,6.2,0.5,9.2
						c0.8,6.1,2.4,12.1,5.6,17.2c0.4,0.6,0.8,1.3,1.2,1.9l1.4,1.8c0.5,0.6,1,1.1,1.5,1.6c0.3,0.3,0.5,0.6,0.8,0.8l0.9,0.7
						c0.6,0.5,1.1,1,1.7,1.4l1.9,1.3c0.6,0.4,1.3,0.7,2,1.1c0.7,0.4,1.3,0.7,2,1l2.1,0.9c0.7,0.3,1.4,0.5,2.1,0.7
						c1.4,0.5,2.9,0.9,4.5,1.3c3,0.8,6,1.8,9,2.9c5.9,2.2,11.7,4.7,17.1,7.9c2.8,1.5,5.4,3.3,8,5.1c2.5,1.9,5,3.9,7.3,6.1
						c2.3,2.2,4.4,4.6,6.3,7.2c1.9,2.6,3.5,5.4,4.9,8.3c1.3,3,2.2,6.1,2.8,9.3c0.3,1.6,0.4,3.2,0.5,4.8c0,1.6,0,3.2-0.2,4.8
						c-0.3,3.2-1,6.4-2,9.4c-0.5,1.5-1.1,3-1.7,4.5c-0.7,1.4-1.4,2.9-2.1,4.3c-1.5,2.8-3.1,5.5-4.8,8.1c-1.8,2.6-3.7,5.1-5.8,7.5
						c-4.2,4.8-9.3,8.8-15,11.6c-2.9,1.4-5.8,2.5-8.8,3.5s-6.1,1.6-9.2,2.2c-6.2,1.1-12.4,1.6-18.6,1.9c-6.2,0.3-12.5,0.3-18.7,0.2
						c-6.2,0-12.4-0.2-18.6-0.5c12.4-0.2,24.9-0.3,37.2-1.3c6.2-0.4,12.3-1.1,18.4-2.3c3-0.6,6-1.4,8.9-2.3c2.9-1,5.7-2.1,8.4-3.5
						c5.4-2.8,10.1-6.7,14.1-11.3c2-2.3,3.8-4.8,5.5-7.3c1.6-2.6,3.2-5.2,4.6-8c0.7-1.4,1.3-2.7,2-4.1c0.5-1.4,1.2-2.8,1.6-4.2
						c1-2.9,1.6-5.8,1.8-8.8c0.2-1.5,0.1-3,0.1-4.5c-0.1-1.5-0.2-3-0.5-4.4c-0.5-2.9-1.4-5.8-2.6-8.5c-1.2-2.7-2.8-5.3-4.5-7.8
						c-1.8-2.5-3.8-4.7-6-6.8c-2.2-2.1-4.5-4-7-5.9c-2.5-1.8-5-3.5-7.7-5c-5.3-3.1-10.9-5.7-16.6-7.9c-1.4-0.5-2.9-1-4.4-1.5
						c-1.5-0.5-2.9-1-4.4-1.4c-1.5-0.4-2.9-0.9-4.5-1.4c-0.8-0.3-1.5-0.5-2.3-0.8l-2.2-1c-0.8-0.3-1.4-0.7-2.1-1.1
						c-0.7-0.4-1.4-0.8-2.1-1.2l-2-1.4c-0.7-0.5-1.2-1-1.8-1.6l-0.9-0.8c-0.3-0.3-0.5-0.6-0.8-0.9c-0.5-0.6-1.1-1.2-1.6-1.8
						l-1.4-1.9c-0.5-0.6-0.8-1.4-1.3-2c-3.3-5.5-4.8-11.8-5.4-18.1c-0.3-3.1-0.3-6.3-0.2-9.4c0.1-3.1,0.5-6.2,0.9-9.3
						C261.3,217.4,262.8,211.3,264.8,205.4z"/>
				</g>
				<ellipse cx="278.2" cy="234.8" rx="8.2" ry="17.6"/>
				<ellipse class="st2" cx="275.4" cy="232.5" rx="2.9" ry="7.2"/>
				<g>
					<g>
						<path d="M199.3,296.3c-0.4-1.5-0.4-3.3,0.4-4.8c0.4-0.8,1-1.3,1.5-1.9c0.5-0.6,1-1.1,1.6-1.7c1.1-1.1,2.5-2,4-2.5
							c1.4-0.6,3.1-1,4.6-0.7c0.8,0.2,1.6,0.6,2.1,1.1s0.9,1.3,1.1,2.1c0.4,1.5,0.4,3.1,0.1,4.6c-0.3,3.1-1.8,6-4,8.2
							c2.1-2.2,3.5-5.1,3.7-8.2c0.2-1.5,0.2-3.1-0.3-4.5c-0.2-0.7-0.6-1.4-1.1-1.9s-1.2-0.8-1.9-1c-1.4-0.3-2.9,0.2-4.3,0.7
							c-1.4,0.6-2.6,1.4-3.7,2.5c-0.5,0.5-1,1.1-1.5,1.7c-0.5,0.6-1,1.2-1.3,1.8c-0.6,1.3-0.6,2.8-0.2,4.1L199.3,296.3z"/>
					</g>
					
						<ellipse transform="matrix(0.225 -0.9744 0.9744 0.225 -129.862 424.9114)" class="st8" cx="202.2" cy="294.1" rx="3.6" ry="2.6"/>
				</g>
				<g>
					<g>
						<path d="M172.5,297.2c1.2-0.8,2.1-2,2.4-3.4c0.1-0.7,0.1-1.4,0.1-2.2c0-0.8-0.1-1.5-0.2-2.3c-0.1-1.5-0.6-2.9-1.4-4.2
							c-0.7-1.3-1.6-2.5-2.9-3.2c-0.6-0.3-1.4-0.5-2.1-0.4c-0.7,0.1-1.4,0.4-2,0.8c-1.2,0.9-2.2,2.1-3,3.4c-1.7,2.5-2.4,5.7-2.1,8.7
							c-0.4-3,0.3-6.2,1.9-8.9c0.8-1.3,1.7-2.6,3-3.6c0.6-0.5,1.4-0.8,2.2-1c0.8-0.1,1.6,0,2.4,0.4c1.5,0.7,2.5,2,3.3,3.4
							s1.4,2.9,1.6,4.4c0.1,0.8,0.2,1.5,0.2,2.3c0,0.8,0.1,1.5,0,2.4c-0.3,1.7-1.4,3.1-2.7,4L172.5,297.2z"/>
					</g>
					
						<ellipse transform="matrix(0.4226 -0.9063 0.9063 0.4226 -167.3882 326.1497)" class="st9" cx="172.3" cy="294.4" rx="3.6" ry="2.6"/>
				</g>
				<g>
					<path d="M154.4,336.5c1.9,2.1,4.2,3.8,6.6,5.1c2.4,1.4,5.1,2.2,7.8,2.6s5.5,0.1,8.1-0.7c2.6-0.8,5-2.1,7.1-3.8l-0.4,0.7
						c0.3-3.8,0.8-7.6,0.9-11.5l0.4-11.5c0.2-3.9,0.6-7.7,1.1-11.6c0.6-3.8,1.2-7.7,2.2-11.4l0.3,0c0,3.9-0.1,7.7-0.2,11.6
						l-0.3,11.5c-0.1,3.9-0.4,7.7-0.8,11.6c-0.2,1.9-0.4,3.9-0.7,5.8l-0.8,5.8l-0.1,0.5l-0.3,0.3c-2.4,1.8-5.1,3.1-7.9,3.8
						c-2.9,0.7-5.9,0.9-8.8,0.4c-2.9-0.5-5.6-1.6-8.1-3.1c-2.4-1.5-4.6-3.5-6.4-5.7L154.4,336.5z"/>
				</g>
				<path class="st10" d="M152.7,330.6c0.9-0.3,2,2.8,5.4,5.7c1,0.9,6.1,5.3,13,4.9c4.8-0.2,8.9-3,10.3-4.1c0,0,0.1,0,0.1,0
					c2.2-1.8,3.5-3.8,4.2-5.1c1.1,1.5,2.9,3.8,5.9,5.9c1.5,1.1,5.6,3.9,11.4,4.1c1.3,0.1,6.6,0.2,11.9-2.9c4.4-2.6,5.6-5.6,6.8-5.1
					c1.6,0.7,1.8,6.6-0.9,10.9c-1.5,2.3-2.9,2.9-10.6,6.8c-11.1,5.6-11.9,6.5-14.1,6c-5.3-1.2-6.2-7.9-10-7.6
					c-3.5,0.2-3.9,6-8.4,7.1c-2.6,0.7-5.3-0.7-10.1-4c-5.9-3.9-12.3-7.8-14.6-15.1C151.8,334.9,151.7,331,152.7,330.6z"/>
				<g>
					<path d="M143.9,129.8c5.6,4.2,11.6,8,17.8,11.3c6.2,3.3,12.7,6,19.4,8c6.7,2,13.6,3.4,20.6,3.8c7,0.5,14-0.1,21-1.1
						c7-1,14.1-2.2,21.1-3.4c7-1.2,14-2.5,21-4c7-1.5,13.9-3.1,20.8-4.9c6.9-1.7,13.8-3.5,20.7-5.4c6.9-1.9,13.7-3.9,20.6-5.9
						c3.4-1,6.9-1.9,10.4-2.7c3.5-0.8,7-1.4,10.6-1.9c14.1-2.2,28.6-3.2,42.8-1.7c7.1,0.8,14.2,2,21.1,4c3.5,1,6.8,2.2,10.2,3.5
						c3.4,1.3,6.7,2.6,9.9,4.2c3.2,1.6,6.2,3.6,8.9,6c2.7,2.4,5,5.2,6.9,8.2c3.8,6.1,6,13.1,6.8,20.2c-0.9-7.1-3.1-14-7-20
						c-3.8-6-9.4-10.9-15.8-13.9c-3.2-1.6-6.5-2.8-9.9-4c-3.4-1.2-6.7-2.4-10.1-3.3c-6.9-1.9-13.9-3.1-21-3.7
						c-14.2-1.3-28.5-0.2-42.5,2.2c-3.5,0.6-7,1.3-10.5,2.1c-3.5,0.8-6.9,1.8-10.3,2.8c-6.8,2.1-13.7,4.2-20.5,6.1
						s-13.8,3.8-20.7,5.6c-6.9,1.8-13.9,3.6-20.8,5.1c-7,1.6-14,3-21,4.3c-7,1.3-14.1,2.6-21.2,3.6c-7.1,1.1-14.4,1.8-21.6,1.3
						c-7.3-0.4-14.4-1.7-21.4-3.7c-7-2-13.7-4.8-20.2-8.1c-6.4-3.3-12.6-7.2-18.4-11.4L143.9,129.8z"/>
				</g>
				<g>
					<path d="M144.8,132.2c2.5-2.3,5.1-4.4,7.7-6.5c2.6-2.1,5.4-4,8.2-5.8c2.8-1.8,5.8-3.5,8.9-4.7c1.6-0.6,3.2-1.1,4.9-1.3
						c1.7-0.2,3.4-0.2,4.9,0.5c-1.6-0.5-3.3-0.4-4.8,0c-1.6,0.4-3.1,1-4.5,1.8c-2.9,1.5-5.6,3.4-8.1,5.4c-2.6,2-5,4.2-7.4,6.5
						c-2.4,2.3-4.7,4.6-6.8,7L144.8,132.2z"/>
				</g>
				<g>
					<path d="M195.3,72.7c0.6,0.1,1-0.2,1.5-0.5c0.4-0.3,0.8-0.7,1.2-1c0.8-0.7,1.6-1.5,2.4-2.2c1.6-1.5,3.3-2.8,5.2-4
						c1.9-1.1,3.9-2,6.1-2.4c1.1-0.2,2.2-0.3,3.3-0.3c1.1,0,2.2,0.2,3.2,0.4c-2.2-0.1-4.3,0.1-6.3,0.6c-2,0.6-4,1.4-5.8,2.5
						c-1.8,1.1-3.5,2.4-5.2,3.7c-0.9,0.7-1.7,1.3-2.6,2c-0.4,0.3-0.9,0.6-1.4,0.9C196.4,72.7,195.9,72.9,195.3,72.7z"/>
				</g>
				<g>
					<path d="M227.2,63.8c0.7,1.7,1.1,3.6,1.3,5.5c0.2,1.9,0.1,3.9-0.6,5.8c-0.6,1.9-1.9,3.8-3.6,5.1c-1.7,1.3-3.7,1.9-5.7,2.3
						c-1,0.2-1.9,0.3-2.9,0.4c-0.9,0.1-1.9,0.2-2.9,0.2c-1,0-2-0.1-2.9-0.2c-0.9-0.1-1.8-0.2-2.7-0.2c-3.6-0.2-7.3-0.1-11,0.1
						c3.5-1.4,7.2-2.3,11-2.5c1.9-0.2,3.9,0,5.5-0.1c0.8-0.1,1.8-0.2,2.6-0.3c0.9-0.1,1.8-0.2,2.6-0.4c1.7-0.3,3.3-0.8,4.6-1.7
						c1.3-0.8,2.3-2.1,3-3.6c0.7-1.5,1.1-3.3,1.3-5C227.3,67.5,227.3,65.7,227.2,63.8z"/>
				</g>
				<g>
					<path d="M282.5,40.8c0.5,2.1,0.6,4.3,0.5,6.4c-0.1,2.2-0.5,4.3-0.9,6.4c-1,4.2-2.5,8.3-4.3,12.3c-1.8,4-4.1,7.7-6.3,11.3
						c-2.2,3.5-4,7.3-3.9,11.1c0,3.8,2,7.5,4.1,11.2c2.1,3.7,4.4,7.4,5.9,11.5c0.8,2,1.4,4.1,1.9,6.3c0.2,1.1,0.4,2.1,0.6,3.2
						c0.2,1.1,0.3,2.2,0.4,3.2c0.3,4.3,0,8.7-0.8,12.9c0.4-8.5-0.7-17.1-4.2-24.7c-0.9-1.9-1.8-3.7-2.9-5.6c-1-1.8-2.2-3.6-3.3-5.4
						c-1.1-1.8-2.2-3.8-3.1-5.8s-1.5-4.4-1.5-6.8c0-2.4,0.5-4.7,1.3-6.8c0.9-2.1,1.9-4.1,3.1-5.9c2.4-3.6,4.6-7.1,6.6-10.8
						c2-3.7,3.7-7.6,5-11.6c0.7-2,1.1-4,1.5-6.1c0.2-1,0.3-2.1,0.4-3.2C282.6,42.9,282.6,41.9,282.5,40.8z"/>
				</g>
				<g>
					<path d="M311.8,96.2c1.5,1.3,2.5,3,2.9,5.1c0.4,2,0,4.3-1.2,6c-1.1,1.8-2.8,3-4.5,4c-0.9,0.4-1.8,0.8-2.7,1.2
						c-0.9,0.3-1.9,0.5-2.8,0.7c0.8-0.6,1.6-1.1,2.4-1.6c0.8-0.5,1.5-1.1,2.3-1.6c1.4-1.2,2.8-2.3,3.6-3.8c0.9-1.4,1.4-3,1.3-4.8
						C313.1,99.8,312.6,98,311.8,96.2z"/>
				</g>
				<g>
					<path d="M257.9,110c0.4-0.9,1-1.7,1.9-2.2c0.9-0.5,2-0.8,3.1-0.6c2.1,0.4,3.8,1.7,5.1,3.2l0.9,1c0.3,0.3,0.6,0.6,0.9,0.8
						c0.3,0.2,0.5,0.3,0.8,0.4c0.1,0,0.2,0,0.3,0c0.1,0,0.2,0,0.3,0c0.1,0,0.3,0,0.5,0c0.7-0.2,1.4-0.7,2-1.3c0.7-0.6,1.3-1.3,1.9-2
						c-0.3,0.9-0.6,1.8-1.1,2.6c-0.5,0.8-1.2,1.7-2.3,2.1c-0.3,0.1-0.6,0.2-0.9,0.2c-0.2,0-0.3,0-0.4,0c-0.1,0-0.3,0-0.4,0
						c-0.6,0-1.3-0.3-1.7-0.6c-0.5-0.3-0.9-0.7-1.2-1l-1-1.1c-1.1-1.3-2.4-2.5-3.9-3c-0.8-0.2-1.5-0.2-2.4,0
						C259.4,108.9,258.6,109.4,257.9,110z"/>
				</g>
				<g>
					<g>
						<path d="M174.3,315c-4.7-0.9-9.3-1.8-14-2.5c-4.7-0.8-9.4-1.5-14.1-2.1c-9.4-1.3-18.8-2.4-28.3-3c-9.5-0.7-19-1-28.4-0.6
							c-4.7,0.1-9.5,0.6-14.2,1.2c-4.7,0.6-9.4,1.6-13.9,3c9-3.2,18.5-4.4,28-5c9.5-0.5,19-0.2,28.5,0.4c9.5,0.7,18.9,1.8,28.4,3.3
							C155.7,311,165.1,312.8,174.3,315z"/>
					</g>
					<g>
						<path d="M174.3,315c-4.7-0.5-9.5-0.9-14.2-1.3c-4.7-0.4-9.5-0.7-14.2-0.9c-9.5-0.5-19-0.7-28.5-0.6c-9.5,0.1-19,0.6-28.4,1.8
							c-4.7,0.6-9.4,1.4-14,2.4c-4.6,1-9.2,2.4-13.6,4.2c8.7-4,18.1-6,27.5-7.4c9.4-1.3,19-1.9,28.5-2.1c9.5-0.1,19,0.2,28.5,0.8
							C155.4,312.7,164.9,313.6,174.3,315z"/>
					</g>
					<g>
						<path d="M174.3,315c-4.8,0.1-9.5,0.2-14.2,0.5c-4.8,0.2-9.5,0.5-14.2,0.8c-9.5,0.7-18.9,1.6-28.3,2.9c-9.4,1.3-18.8,3-28,5.3
							c-4.6,1.1-9.2,2.5-13.6,4.1c-4.5,1.6-8.8,3.5-13,5.8c8.1-5,17.2-8.2,26.4-10.7c9.2-2.5,18.6-4.2,28-5.5
							c9.4-1.3,18.9-2.2,28.4-2.7C155.3,315,164.8,314.7,174.3,315z"/>
					</g>
					<g>
						<path d="M174.3,315c-4.7,0.7-9.4,1.4-14.1,2.2c-4.7,0.8-9.4,1.6-14,2.6c-9.3,1.8-18.6,3.9-27.8,6.3
							c-9.2,2.4-18.3,5.2-27.1,8.6c-4.4,1.7-8.8,3.6-13,5.8c-4.2,2.1-8.3,4.5-12.2,7.4c7.5-5.9,16.1-10.2,24.9-13.8
							c8.8-3.6,17.9-6.4,27.1-8.9c9.2-2.4,18.5-4.5,27.9-6.1C155.4,317.3,164.8,315.9,174.3,315z"/>
					</g>
					<g>
						<path d="M174.3,315c-4.6,1.2-9.2,2.5-13.7,3.9c-4.6,1.4-9.1,2.8-13.6,4.3c-9,3-18,6.1-26.8,9.7c-8.8,3.5-17.5,7.4-25.8,11.9
							c-4.2,2.2-8.3,4.7-12.2,7.3c-3.9,2.6-7.7,5.5-11.2,8.8c6.7-6.8,14.7-12.1,23-16.8c8.3-4.6,17-8.5,25.8-12.1
							c8.9-3.5,17.8-6.7,26.9-9.5C155.9,319.6,165,317,174.3,315z"/>
					</g>
				</g>
				<g>
					<g>
						<path d="M204,316c9.3-2,18.7-3.6,28.1-4.9c9.4-1.3,18.9-2.2,28.4-2.8c9.5-0.5,19-0.6,28.5,0.1c9.5,0.7,19,2.1,27.9,5.4
							c-4.5-1.5-9.2-2.5-13.9-3.2c-4.7-0.7-9.4-1.2-14.1-1.5c-9.5-0.5-19-0.4-28.4,0.2c-9.5,0.5-18.9,1.4-28.4,2.5
							c-4.7,0.6-9.4,1.2-14.1,1.9C213.4,314.5,208.7,315.2,204,316z"/>
					</g>
					<g>
						<path d="M204,316c9.4-1.2,18.9-2,28.4-2.5s19-0.6,28.5-0.3c9.5,0.4,19,1,28.4,2.5c9.4,1.5,18.8,3.8,27.4,7.9
							c-4.4-1.9-8.9-3.3-13.5-4.4c-4.6-1.1-9.3-2-14-2.7c-9.4-1.3-18.9-2-28.4-2.3c-9.5-0.3-19-0.2-28.5,0.1
							c-4.8,0.1-9.5,0.4-14.2,0.7C213.5,315.3,208.8,315.6,204,316z"/>
					</g>
					<g>
						<path d="M204,316c9.5-0.1,19,0.4,28.5,1c9.5,0.7,18.9,1.8,28.4,3.2c9.4,1.5,18.8,3.4,27.9,6c9.1,2.7,18.2,6,26.2,11.1
							c-4.1-2.4-8.4-4.4-12.9-6c-4.4-1.7-9-3.1-13.5-4.4c-9.2-2.5-18.5-4.3-27.9-5.8c-9.4-1.5-18.8-2.5-28.3-3.4
							c-4.7-0.4-9.5-0.8-14.2-1.1C213.5,316.4,208.8,316.2,204,316z"/>
					</g>
					<g>
						<path d="M204,316c9.4,1.1,18.8,2.7,28.2,4.5c9.3,1.8,18.6,4.1,27.8,6.6c9.1,2.6,18.2,5.6,27,9.4c8.7,3.8,17.3,8.2,24.6,14.2
							c-3.8-2.9-7.9-5.4-12-7.5c-4.2-2.2-8.5-4.2-12.9-6c-8.8-3.6-17.8-6.5-27-9.1c-9.1-2.6-18.4-4.8-27.6-6.8
							c-4.6-1-9.3-1.9-14-2.8C213.4,317.6,208.7,316.8,204,316z"/>
					</g>
					<g>
						<path d="M204,316c9.2,2.2,18.4,4.9,27.4,7.9c9,3,18,6.3,26.8,9.9c8.8,3.7,17.4,7.8,25.6,12.6c8.2,4.8,16.2,10.2,22.7,17.1
							c-3.4-3.3-7.1-6.3-11-9c-3.9-2.7-7.9-5.2-12.1-7.5c-8.3-4.6-16.9-8.7-25.6-12.3c-8.7-3.7-17.6-7-26.6-10.1
							c-4.5-1.6-9-3-13.5-4.5C213.1,318.7,208.6,317.3,204,316z"/>
					</g>
				</g>
			</g>
		</g>
	</g>
</g>
</svg>
